<?xml version="1.0" encoding="utf-8"?><svg xmlns="http://www.w3.org/2000/svg" xmlns:xlink="http://www.w3.org/1999/xlink" width="1440" height="820" preserveAspectRatio="xMidYMid" viewBox="0 0 1440 820" style="z-index:1;margin-right:-2px;display:block;background-repeat-y:initial;background-repeat-x:initial;background-color:rgb(7, 6, 22);animation-play-state:paused" ><g transform="translate(720,410) scale(1,1) translate(-720,-410)" style="animation-play-state:paused" ><defs style="animation-play-state:paused" ><path id="path-3fsbdvjr4ea-1" d="M-35 -35L35 -35L35 35L-35 35Z" fill="none" stroke="inherit" stroke-width="4.333333333333334" transform="scale(0.3)" style="animation-play-state:paused" ></path>

  
<path id="path-3fsbdvjr4ea-2" d="M0 -37A37 37 0 0 1 0 37A37 37 0 0 1 0 -37" fill="none" stroke="inherit" stroke-width="4.333333333333334" transform="scale(0.3)" style="animation-play-state:paused" ></path>

  
<path id="path-3fsbdvjr4ea-3" d="M0 -34.641L40 34.641L-40 34.641Z" fill="none" stroke="inherit" stroke-width="4.333333333333334" transform="scale(0.3)" style="animation-play-state:paused" ></path></defs>
<path id="path0" d="M 94.4964670536909 360.7476096437549
c 0 20.602580488780582 -5.041056928105887 5.917762480819955 -10.95881940892584 5.917762480819955
S 72.57882823583921 381.3501901325355 72.57882823583921 360.7476096437549
s 5.041056928105887 -5.917762480819955 10.95881940892584 -5.917762480819955
S 94.4964670536909 340.14502915497434 94.4964670536909 360.7476096437549
z" fill="none" stroke="none" style="animation-play-state:paused" ></path>


<use xlink:href="#path-3fsbdvjr4ea-2" x="0" y="0" stroke="#ddeeff" transform="translate(72.83543395996094 367.20220947265625)" style="animation-play-state:paused" ></use>
<path id="path1" d="M 147.87419107922912 221.67709019548548
c 0 65.35518133334787 -15.991161390074476 18.772232936174387 -34.763394326248864 18.772232936174387
S 78.34740242673138 287.03227152883335 78.34740242673138 221.67709019548548
s 15.991161390074476 -18.772232936174387 34.763394326248864 -18.772232936174387
S 147.87419107922912 156.3219088621376 147.87419107922912 221.67709019548548
z" fill="none" stroke="none" style="animation-play-state:paused" ></path>


<use xlink:href="#path-3fsbdvjr4ea-1" x="0" y="0" stroke="#ddeeff" transform="translate(107.53214263916016 241.70724487304688)" style="animation-play-state:paused" ></use>
<path id="path2" d="M 210.53516749227026 218.24191584907643
c 0 28.88776120606573 -7.068281997228849 8.297548431529519 -15.365830428758366 8.297548431529519
S 179.80350663475355 247.12967705514217 179.80350663475355 218.24191584907643
s 7.068281997228849 -8.297548431529519 15.365830428758366 -8.297548431529519
S 210.53516749227026 189.3541546430107 210.53516749227026 218.24191584907643
z" fill="none" stroke="none" style="animation-play-state:paused" ></path>


<use xlink:href="#path-3fsbdvjr4ea-1" x="0" y="0" stroke="#aabbcc" transform="translate(206.63389587402344 233.5242919921875)" style="animation-play-state:paused" ></use>
<path id="path3" d="M 290.82854168639085 503.56360276326063
c 0 62.55875028452685 -15.30692826110763 17.969002741300265 -33.275931002407894 17.969002741300265
S 224.27667968157505 566.1223530477874 224.27667968157505 503.56360276326063
s 15.30692826110763 -17.969002741300265 33.275931002407894 -17.969002741300265
S 290.82854168639085 441.00485247873377 290.82854168639085 503.56360276326063
z" fill="none" stroke="none" style="animation-play-state:paused" ></path>


<use xlink:href="#path-3fsbdvjr4ea-1" x="0" y="0" stroke="#ddeeff" transform="translate(290.3942565917969 519.07568359375)" style="animation-play-state:paused" ></use>
<path id="path4" d="M 395.02477528687643 36.67959322283865
c 0 31.353700133253227 -7.6716500326045125 9.005850038274863 -16.677500070879375 9.005850038274863
S 361.6697751451177 68.03329335609187 361.6697751451177 36.67959322283865
s 7.6716500326045125 -9.005850038274863 16.677500070879375 -9.005850038274863
S 395.02477528687643 5.325893089585421 395.02477528687643 36.67959322283865
z" fill="none" stroke="none" style="animation-play-state:paused" ></path>


<use xlink:href="#path-3fsbdvjr4ea-2" x="0" y="0" stroke="#bbddff" transform="translate(370.6011962890625 49.81471633911133)" style="animation-play-state:paused" ></use>
<path id="path5" d="M 480.2500122985597 577.6831301818422
c 0 36.5188143794493 -8.93545458220568 10.489446683458842 -19.424901265664523 10.489446683458842
S 441.40020976723065 614.2019445612915 441.40020976723065 577.6831301818422
s 8.93545458220568 -10.489446683458842 19.424901265664523 -10.489446683458842
S 480.2500122985597 541.1643158023929 480.2500122985597 577.6831301818422
z" fill="none" stroke="none" style="animation-play-state:paused" ></path>


<use xlink:href="#path-3fsbdvjr4ea-3" x="0" y="0" stroke="#bbddff" transform="translate(452.7996826171875 592.13427734375)" style="animation-play-state:paused" ></use>
<path id="path6" d="M 580.1362110959878 538.9244251828391
c 0 48.957621316105566 -11.978992449685403 14.062295484413301 -26.041287934098705 14.062295484413301
S 528.0536352277904 587.8820464989446 528.0536352277904 538.9244251828391
s 11.978992449685403 -14.062295484413301 26.041287934098705 -14.062295484413301
S 580.1362110959878 489.96680386673347 580.1362110959878 538.9244251828391
z" fill="none" stroke="none" style="animation-play-state:paused" ></path>


<use xlink:href="#path-3fsbdvjr4ea-3" x="0" y="0" stroke="#aabbcc" transform="translate(528.3783569335938 550.8362426757812)" style="animation-play-state:paused" ></use>
<path id="path7" d="M 580.18830940299 626.1991977306805
c 0 23.107479511857047 -5.653957752901191 6.637254753405747 -12.29121250630694 6.637254753405747
S 555.6058843903761 649.3066772425375 555.6058843903761 626.1991977306805
s 5.653957752901191 -6.637254753405747 12.29121250630694 -6.637254753405747
S 580.18830940299 603.0917182188234 580.18830940299 626.1991977306805
z" fill="none" stroke="none" style="animation-play-state:paused" ></path>


<use xlink:href="#path-3fsbdvjr4ea-2" x="0" y="0" stroke="#bbddff" transform="translate(580.1845092773438 627.1577758789062)" style="animation-play-state:paused" ></use>
<path id="path8" d="M 736.2016589309509 163.27697512872794
c 0 43.04521304352083 -10.532339361712543 12.364050555053856 -22.8963899167664 12.364050555053856
S 690.408879097418 206.3221881722488 690.408879097418 163.27697512872794
s 10.532339361712543 -12.364050555053856 22.8963899167664 -12.364050555053856
S 736.2016589309509 120.23176208520711 736.2016589309509 163.27697512872794
z" fill="none" stroke="none" style="animation-play-state:paused" ></path>


<use xlink:href="#path-3fsbdvjr4ea-2" x="0" y="0" stroke="#aabbcc" transform="translate(727.4658813476562 184.29544067382812)" style="animation-play-state:paused" ></use>
<path id="path9" d="M 819.2456683119083 562.4819566983484
c 0 62.956316294994565 -15.404205050902924 18.083197233668653 -33.48740228457157 18.083197233668653
S 752.2708637427652 625.4382729933429 752.2708637427652 562.4819566983484
s 15.404205050902924 -18.083197233668653 33.48740228457157 -18.083197233668653
S 819.2456683119083 499.52564040335386 819.2456683119083 562.4819566983484
z" fill="none" stroke="none" style="animation-play-state:paused" ></path>


<use xlink:href="#path-3fsbdvjr4ea-2" x="0" y="0" stroke="#bbddff" transform="translate(817.5097045898438 588.4879760742188)" style="animation-play-state:paused" ></use>
<path id="path10" d="M 827.542667735089 483.62027375218383
c 0 20.10199394481411 -4.918572986497069 5.773976984148734 -10.692549970645803 5.773976984148734
S 806.1575677937974 503.72226769699796 806.1575677937974 483.62027375218383
s 4.918572986497069 -5.773976984148734 10.692549970645803 -5.773976984148734
S 827.542667735089 463.5182798073697 827.542667735089 483.62027375218383
z" fill="none" stroke="none" style="animation-play-state:paused" ></path>


<use xlink:href="#path-3fsbdvjr4ea-2" x="0" y="0" stroke="#ddeeff" transform="translate(827.5408935546875 484.07391357421875)" style="animation-play-state:paused" ></use>
<path id="path11" d="M 975.4409068782384 40.853015964195535
c 0 60.94288334770067 -14.911556563799099 17.50487074880764 -32.41642731260674 17.50487074880764
S 910.6080522530249 101.7958993118962 910.6080522530249 40.853015964195535
s 14.911556563799099 -17.50487074880764 32.41642731260674 -17.50487074880764
S 975.4409068782384 -20.089867383505137 975.4409068782384 40.853015964195535
z" fill="none" stroke="none" style="animation-play-state:paused" ></path>


<use xlink:href="#path-3fsbdvjr4ea-3" x="0" y="0" stroke="#bbddff" transform="translate(966.7662963867188 72.92701721191406)" style="animation-play-state:paused" ></use>
<path id="path12" d="M 1008.8713308532688 136.47238407442111
c 0 56.949977916055644 -13.934569064566805 16.357972380143643 -30.292541444710448 16.357972380143643
S 948.2862479638479 193.42236199047676 948.2862479638479 136.47238407442111
s 13.934569064566805 -16.357972380143643 30.292541444710448 -16.357972380143643
S 1008.8713308532688 79.52240615836547 1008.8713308532688 136.47238407442111
z" fill="none" stroke="none" style="animation-play-state:paused" ></path>


<use xlink:href="#path-3fsbdvjr4ea-1" x="0" y="0" stroke="#aabbcc" transform="translate(999.8499145507812 166.00238037109375)" style="animation-play-state:paused" ></use>
<path id="path13" d="M 1073.6832429969381 324.4088304269244
c 0 58.58324834047002 -14.334199062029898 16.82710324673075 -31.16130230876065 16.82710324673075
S 1011.3606383794167 382.99207876739445 1011.3606383794167 324.4088304269244
s 14.334199062029898 -16.82710324673075 31.16130230876065 -16.82710324673075
S 1073.6832429969381 265.82558208645435 1073.6832429969381 324.4088304269244
z" fill="none" stroke="none" style="animation-play-state:paused" ></path>


<use xlink:href="#path-3fsbdvjr4ea-2" x="0" y="0" stroke="#bbddff" transform="translate(1073.43701171875 336.1417541503906)" style="animation-play-state:paused" ></use>
<path id="path14" d="M 1170.8664932225463 151.63805342911095
c 0 59.965220231466766 -14.672341120465271 17.224052619676623 -31.896393740141896 17.224052619676623
S 1107.0737057422623 211.6032736605777 1107.0737057422623 151.63805342911095
s 14.672341120465271 -17.224052619676623 31.896393740141896 -17.224052619676623
S 1170.8664932225463 91.6728331976442 1170.8664932225463 151.63805342911095
z" fill="none" stroke="none" style="animation-play-state:paused" ></path>


<use xlink:href="#path-3fsbdvjr4ea-3" x="0" y="0" stroke="#ddeeff" transform="translate(1170.8592529296875 153.7757568359375)" style="animation-play-state:paused" ></use>
<path id="path15" d="M 1205.662670023017 377.2891498212566
c 0 27.934312373647074 -6.834991325466836 8.023685469026288 -14.858676794493125 8.023685469026288
S 1175.945316434031 405.2234621949037 1175.945316434031 377.2891498212566
s 6.834991325466836 -8.023685469026288 14.858676794493125 -8.023685469026288
S 1205.662670023017 349.35483744760955 1205.662670023017 377.2891498212566
z" fill="none" stroke="none" style="animation-play-state:paused" ></path>


<use xlink:href="#path-3fsbdvjr4ea-2" x="0" y="0" stroke="#ddeeff" transform="translate(1204.8980712890625 388.7997131347656)" style="animation-play-state:paused" ></use>
<path id="path16" d="M 1332.4238286537166 666.6958212987206
c 0 25.540848551268947 -6.249356560416869 7.336201179619804 -13.585557740036673 7.336201179619804
S 1305.2527131736433 692.2366698499895 1305.2527131736433 666.6958212987206
s 6.249356560416869 -7.336201179619804 13.585557740036673 -7.336201179619804
S 1332.4238286537166 641.1549727474517 1332.4238286537166 666.6958212987206
z" fill="none" stroke="none" style="animation-play-state:paused" ></path>


<use xlink:href="#path-3fsbdvjr4ea-3" x="0" y="0" stroke="#bbddff" transform="translate(1332.423583984375 666.7699584960938)" style="animation-play-state:paused" ></use>
<path id="path17" d="M 1374.0960515588292 489.63827351152116
c 0 40.88191544922423 -10.003021865235715 11.742677841798448 -21.745699707034163 11.742677841798448
S 1330.6046521447608 530.5201889607454 1330.6046521447608 489.63827351152116
s 10.003021865235715 -11.742677841798448 21.745699707034163 -11.742677841798448
S 1374.0960515588292 448.75635806229695 1374.0960515588292 489.63827351152116
z" fill="none" stroke="none" style="animation-play-state:paused" ></path>


<use xlink:href="#path-3fsbdvjr4ea-3" x="0" y="0" stroke="#bbddff" transform="translate(1350.9229736328125 501.5198669433594)" style="animation-play-state:paused" ></use></g></svg>