<?xml version="1.0" encoding="utf-8"?><svg xmlns="http://www.w3.org/2000/svg" xmlns:xlink="http://www.w3.org/1999/xlink" width="1440" height="820" preserveAspectRatio="xMidYMid" viewBox="0 0 1440 820" style="z-index:1;margin-right:-2px;display:block;background-repeat-y:initial;background-repeat-x:initial;background-color:rgb(7, 6, 22);animation-play-state:paused" ><g transform="translate(720,410) scale(1,1) translate(-720,-410)" style="animation-play-state:paused" ><defs style="animation-play-state:paused" ><path id="path-mhtuu6i7f2-1" d="M-35 -35L35 -35L35 35L-35 35Z" fill="none" stroke="inherit" stroke-width="4.333333333333334" transform="scale(0.3)" style="animation-play-state:paused" ></path>

  
<path id="path-mhtuu6i7f2-2" d="M0 -37A37 37 0 0 1 0 37A37 37 0 0 1 0 -37" fill="none" stroke="inherit" stroke-width="4.333333333333334" transform="scale(0.3)" style="animation-play-state:paused" ></path>

  
<path id="path-mhtuu6i7f2-3" d="M0 -34.641L40 34.641L-40 34.641Z" fill="none" stroke="inherit" stroke-width="4.333333333333334" transform="scale(0.3)" style="animation-play-state:paused" ></path></defs>
<path id="path0" d="M 79.55192519094076 244.86494646486972
c 0 22.7087864954356 -5.556405206329987 6.52273654656129 -12.079141752891276 6.52273654656129
S 55.393641685158215 267.57373296030534 55.393641685158215 244.86494646486972
s 5.556405206329987 -6.52273654656129 12.079141752891276 -6.52273654656129
S 79.55192519094076 222.15615996943413 79.55192519094076 244.86494646486972
z" fill="none" stroke="none" style="animation-play-state:paused" ></path>


<use xlink:href="#path-mhtuu6i7f2-3" x="0" y="0" stroke="#ddeeff" transform="translate(73.44623565673828 254.6934356689453)" style="animation-play-state:paused" ></use>
<path id="path1" d="M 173.11551960108895 547.3893166081091
c 0 23.123044895826254 -5.657766304297913 6.641725661567116 -12.299491965865029 6.641725661567116
S 148.5165356693589 570.5123615039354 148.5165356693589 547.3893166081091
s 5.657766304297913 -6.641725661567116 12.299491965865029 -6.641725661567116
S 173.11551960108895 524.2662717122828 173.11551960108895 547.3893166081091
z" fill="none" stroke="none" style="animation-play-state:paused" ></path>


<use xlink:href="#path-mhtuu6i7f2-2" x="0" y="0" stroke="#ddeeff" transform="translate(166.9704132080078 557.4596557617188)" style="animation-play-state:paused" ></use>
<path id="path2" d="M 244.15798297217896 231.75383763736858
c 0 60.73830154528912 -14.861499314272868 17.446107890668152 -32.30760720494102 17.446107890668152
S 179.54276856229689 292.4921391826577 179.54276856229689 231.75383763736858
s 14.861499314272868 -17.446107890668152 32.30760720494102 -17.446107890668152
S 244.15798297217896 171.01553609207946 244.15798297217896 231.75383763736858
z" fill="none" stroke="none" style="animation-play-state:paused" ></path>


<use xlink:href="#path-mhtuu6i7f2-2" x="0" y="0" stroke="#bbddff" transform="translate(234.7491912841797 263.3619689941406)" style="animation-play-state:paused" ></use>
<path id="path3" d="M 293.4458240375743 762.4443643383494
c 0 40.09240552607056 -9.809843905315136 11.515903714935162 -21.325747620250297 11.515903714935162
S 250.79432879707372 802.53676986442 250.79432879707372 762.4443643383494
s 9.809843905315136 -11.515903714935162 21.325747620250297 -11.515903714935162
S 293.4458240375743 722.3519588122788 293.4458240375743 762.4443643383494
z" fill="none" stroke="none" style="animation-play-state:paused" ></path>


<use xlink:href="#path-mhtuu6i7f2-3" x="0" y="0" stroke="#aabbcc" transform="translate(288.0074768066406 783.6461181640625)" style="animation-play-state:paused" ></use>
<path id="path4" d="M 369.6857052116583 496.7148564243823
c 0 47.14642722962094 -11.53582793916257 13.542058885103886 -25.077886824266457 13.542058885103886
S 319.5299315631254 543.8612836540033 319.5299315631254 496.7148564243823
s 11.53582793916257 -13.542058885103886 25.077886824266457 -13.542058885103886
S 369.6857052116583 449.56842919476134 369.6857052116583 496.7148564243823
z" fill="none" stroke="none" style="animation-play-state:paused" ></path>


<use xlink:href="#path-mhtuu6i7f2-2" x="0" y="0" stroke="#aabbcc" transform="translate(364.2262268066406 521.8536376953125)" style="animation-play-state:paused" ></use>
<path id="path5" d="M 437.97302462619604 753.3795881688322
c 0 36.87872191423762 -9.023517064121972 10.592824379621446 -19.616341443743416 10.592824379621446
S 398.7403417387092 790.2583100830699 398.7403417387092 753.3795881688322
s 9.023517064121972 -10.592824379621446 19.616341443743416 -10.592824379621446
S 437.97302462619604 716.5008662545946 437.97302462619604 753.3795881688322
z" fill="none" stroke="none" style="animation-play-state:paused" ></path>


<use xlink:href="#path-mhtuu6i7f2-2" x="0" y="0" stroke="#ddeeff" transform="translate(437.93255615234375 757.39453125)" style="animation-play-state:paused" ></use>
<path id="path6" d="M 531.3517499929889 367.32605429394437
c 0 45.92610448095019 -11.237238330445257 13.191540648783564 -24.42877897922882 13.191540648783564
S 482.49419203453124 413.25215877489455 482.49419203453124 367.32605429394437
s 11.237238330445257 -13.191540648783564 24.42877897922882 -13.191540648783564
S 531.3517499929889 321.3999498129942 531.3517499929889 367.32605429394437
z" fill="none" stroke="none" style="animation-play-state:paused" ></path>


<use xlink:href="#path-mhtuu6i7f2-1" x="0" y="0" stroke="#bbddff" transform="translate(528.574951171875 390.4184265136719)" style="animation-play-state:paused" ></use>
<path id="path7" d="M 641.3768906850116 180.3977168335969
c 0 51.77733034423369 -12.668921254440157 14.872211907386273 -27.54113316182643 14.872211907386273
S 586.2946243613587 232.17504717783058 586.2946243613587 180.3977168335969
s 12.668921254440157 -14.872211907386273 27.54113316182643 -14.872211907386273
S 641.3768906850116 128.6203864893632 641.3768906850116 180.3977168335969
z" fill="none" stroke="none" style="animation-play-state:paused" ></path>


<use xlink:href="#path-mhtuu6i7f2-1" x="0" y="0" stroke="#bbddff" transform="translate(626.5919189453125 202.05819702148438)" style="animation-play-state:paused" ></use>
<path id="path8" d="M 728.5956509809171 606.222259577625
c 0 44.500432847176945 -10.88840378175606 12.782039222061464 -23.670443003817525 12.782039222061464
S 681.2547649732819 650.722692424802 681.2547649732819 606.222259577625
s 10.88840378175606 -12.782039222061464 23.670443003817525 -12.782039222061464
S 728.5956509809171 561.721826730448 728.5956509809171 606.222259577625
z" fill="none" stroke="none" style="animation-play-state:paused" ></path>


<use xlink:href="#path-mhtuu6i7f2-2" x="0" y="0" stroke="#aabbcc" transform="translate(687.9078369140625 629.500732421875)" style="animation-play-state:paused" ></use>
<path id="path9" d="M 762.8398513115878 669.357050533003
c 0 60.29009658584778 -14.751832143345732 17.317368168275426 -32.06920031162116 17.317368168275426
S 698.7014506883456 729.6471471188507 698.7014506883456 669.357050533003
s 14.751832143345732 -17.317368168275426 32.06920031162116 -17.317368168275426
S 762.8398513115878 609.0669539471552 762.8398513115878 669.357050533003
z" fill="none" stroke="none" style="animation-play-state:paused" ></path>


<use xlink:href="#path-mhtuu6i7f2-2" x="0" y="0" stroke="#aabbcc" transform="translate(759.5177001953125 699.1448364257812)" style="animation-play-state:paused" ></use>
<path id="path10" d="M 839.0690032444826 423.3462540729962
c 0 50.52683655984937 -12.362949371026973 14.513027522509926 -26.8759768935369 14.513027522509926
S 785.3170494574089 473.87309063284556 785.3170494574089 423.3462540729962
s 12.362949371026973 -14.513027522509926 26.8759768935369 -14.513027522509926
S 839.0690032444826 372.81941751314685 839.0690032444826 423.3462540729962
z" fill="none" stroke="none" style="animation-play-state:paused" ></path>


<use xlink:href="#path-mhtuu6i7f2-2" x="0" y="0" stroke="#ddeeff" transform="translate(838.5889892578125 437.5851135253906)" style="animation-play-state:paused" ></use>
<path id="path11" d="M 969.1686688596018 518.3340921882773
c 0 62.92474199282525 -15.396479423776388 18.074128019215763 -33.47060744299215 18.074128019215763
S 902.2274539736176 581.2588341811025 902.2274539736176 518.3340921882773
s 15.396479423776388 -18.074128019215763 33.47060744299215 -18.074128019215763
S 969.1686688596018 455.409350195452 969.1686688596018 518.3340921882773
z" fill="none" stroke="none" style="animation-play-state:paused" ></path>


<use xlink:href="#path-mhtuu6i7f2-1" x="0" y="0" stroke="#bbddff" transform="translate(944.6359252929688 539.5570068359375)" style="animation-play-state:paused" ></use>
<path id="path12" d="M 1042.6495044122296 558.2632269177293
c 0 63.96652958117335 -15.651384897521135 18.373364879698727 -34.02474977721986 18.373364879698727
S 974.6000048577898 622.2297564989026 974.6000048577898 558.2632269177293
s 15.651384897521135 -18.373364879698727 34.02474977721986 -18.373364879698727
S 1042.6495044122296 494.29669733655595 1042.6495044122296 558.2632269177293
z" fill="none" stroke="none" style="animation-play-state:paused" ></path>


<use xlink:href="#path-mhtuu6i7f2-3" x="0" y="0" stroke="#ddeeff" transform="translate(1017.89111328125 579.955078125)" style="animation-play-state:paused" ></use>
<path id="path13" d="M 1117.8574824614077 132.43669348304724
c 0 33.36979661767893 -8.164950236240589 9.584941581673736 -17.749891817914325 9.584941581673736
S 1082.3576988255788 165.80649010072617 1082.3576988255788 132.43669348304724
s 8.164950236240589 -9.584941581673736 17.749891817914325 -9.584941581673736
S 1117.8574824614077 99.0668968653683 1117.8574824614077 132.43669348304724
z" fill="none" stroke="none" style="animation-play-state:paused" ></path>


<use xlink:href="#path-mhtuu6i7f2-2" x="0" y="0" stroke="#aabbcc" transform="translate(1117.5341796875 141.91409301757812)" style="animation-play-state:paused" ></use>
<path id="path14" d="M 1144.373564140177 514.8483387768932
c 0 49.87606602430923 -12.203718282543747 14.326104070812226 -26.529822353355975 14.326104070812226
S 1091.3139194334651 564.7244048012025 1091.3139194334651 514.8483387768932
s 12.203718282543747 -14.326104070812226 26.529822353355975 -14.326104070812226
S 1144.373564140177 464.972272752584 1144.373564140177 514.8483387768932
z" fill="none" stroke="none" style="animation-play-state:paused" ></path>


<use xlink:href="#path-mhtuu6i7f2-2" x="0" y="0" stroke="#ddeeff" transform="translate(1124.524169921875 531.4152221679688)" style="animation-play-state:paused" ></use>
<path id="path15" d="M 1231.0567563458203 409.601066838974
c 0 41.146854510100965 -10.067847380131086 11.81877735928432 -21.886624739415407 11.81877735928432
S 1187.2835068669897 450.747921349075 1187.2835068669897 409.601066838974
s 10.067847380131086 -11.81877735928432 21.886624739415407 -11.81877735928432
S 1231.0567563458203 368.45421232887304 1231.0567563458203 409.601066838974
z" fill="none" stroke="none" style="animation-play-state:paused" ></path>


<use xlink:href="#path-mhtuu6i7f2-2" x="0" y="0" stroke="#bbddff" transform="translate(1222.9169921875 429.8545227050781)" style="animation-play-state:paused" ></use>
<path id="path16" d="M 1322.3328544653236 138.16475601527446
c 0 54.39885830155655 -13.310358946125538 15.62520398023433 -28.935562926359868 15.62520398023433
S 1264.461728612604 192.563614316831 1264.461728612604 138.16475601527446
s 13.310358946125538 -15.62520398023433 28.935562926359868 -15.62520398023433
S 1322.3328544653236 83.76589771371792 1322.3328544653236 138.16475601527446
z" fill="none" stroke="none" style="animation-play-state:paused" ></path>


<use xlink:href="#path-mhtuu6i7f2-2" x="0" y="0" stroke="#bbddff" transform="translate(1316.4188232421875 167.1811981201172)" style="animation-play-state:paused" ></use>
<path id="path17" d="M 1438.0161580917288 42.58026001424567
c 0 46.04371406138391 -11.266015142679041 13.225322124014529 -24.49133726669357 13.225322124014529
S 1389.0334835583417 88.62397407562958 1389.0334835583417 42.58026001424567
s 11.266015142679041 -13.225322124014529 24.49133726669357 -13.225322124014529
S 1438.0161580917288 -3.4634540471382422 1438.0161580917288 42.58026001424567
z" fill="none" stroke="none" style="animation-play-state:paused" ></path>


<use xlink:href="#path-mhtuu6i7f2-1" x="0" y="0" stroke="#aabbcc" transform="translate(1437.73046875 53.479286193847656)" style="animation-play-state:paused" ></use></g></svg>