<?xml version="1.0" encoding="utf-8"?><svg xmlns="http://www.w3.org/2000/svg" xmlns:xlink="http://www.w3.org/1999/xlink" width="1440" height="820" preserveAspectRatio="xMidYMid" viewBox="0 0 1440 820" style="z-index:1;margin-right:-2px;display:block;background-repeat-y:initial;background-repeat-x:initial;background-color:rgb(241, 242, 243);animation-play-state:paused" ><g transform="translate(720,410) scale(1,1) translate(-720,-410)" style="animation-play-state:paused" ><defs style="animation-play-state:paused" ><path id="path-naq337f6v9-1" d="M-35 -35L35 -35L35 35L-35 35Z" fill="none" stroke="inherit" stroke-width="4.333333333333334" transform="scale(0.3)" style="animation-play-state:paused" ></path>

  
<path id="path-naq337f6v9-2" d="M0 -37A37 37 0 0 1 0 37A37 37 0 0 1 0 -37" fill="none" stroke="inherit" stroke-width="4.333333333333334" transform="scale(0.3)" style="animation-play-state:paused" ></path>

  
<path id="path-naq337f6v9-3" d="M0 -34.641L40 34.641L-40 34.641Z" fill="none" stroke="inherit" stroke-width="4.333333333333334" transform="scale(0.3)" style="animation-play-state:paused" ></path></defs>
<path id="path0" d="M 73.6361927657612 493.8462262205524
c 0 51.777698645780816 -12.669011370776156 14.872317696128531 -27.541329066904687 14.872317696128531
S 18.553534631951813 545.6239248663333 18.553534631951813 493.8462262205524
s 12.669011370776156 -14.872317696128531 27.541329066904687 -14.872317696128531
S 73.6361927657612 442.06852757477157 73.6361927657612 493.8462262205524
z" fill="none" stroke="none" style="animation-play-state:paused" ></path>


<use xlink:href="#path-naq337f6v9-2" x="0" y="0" stroke="#689cc5" transform="translate(70.87203216552734 519.2647094726562)" style="animation-play-state:paused" ></use>
<path id="path1" d="M 133.11643465159847 726.7448755768036
c 0 29.23856360618831 -7.154116627046076 8.39831082305409 -15.552427450100165 8.39831082305409
S 102.01157975139813 755.9834391829919 102.01157975139813 726.7448755768036
s 7.154116627046076 -8.39831082305409 15.552427450100165 -8.39831082305409
S 133.11643465159847 697.5063119706152 133.11643465159847 726.7448755768036
z" fill="none" stroke="none" style="animation-play-state:paused" ></path>


<use xlink:href="#path-naq337f6v9-2" x="0" y="0" stroke="#93dbe9" transform="translate(108.54015350341797 740.5418701171875)" style="animation-play-state:paused" ></use>
<path id="path2" d="M 209.45215921669663 233.3618101901976
c 0 60.50440978292973 -14.804270478801953 17.378926214245773 -32.18319669304773 17.378926214245773
S 145.08576583060116 293.86621997312733 145.08576583060116 233.3618101901976
s 14.804270478801953 -17.378926214245773 32.18319669304773 -17.378926214245773
S 209.45215921669663 172.85740040726785 209.45215921669663 233.3618101901976
z" fill="none" stroke="none" style="animation-play-state:paused" ></path>


<use xlink:href="#path-naq337f6v9-1" x="0" y="0" stroke="#689cc5" transform="translate(209.38356018066406 240.05184936523438)" style="animation-play-state:paused" ></use>
<path id="path3" d="M 323.9354131269274 225.37697109727156
c 0 28.079944782704537 -6.8706247872574915 8.065516054606622 -14.936140841864114 8.065516054606622
S 294.06313144319915 253.4569158799761 294.06313144319915 225.37697109727156
s 6.8706247872574915 -8.065516054606622 14.936140841864114 -8.065516054606622
S 323.9354131269274 197.29702631456703 323.9354131269274 225.37697109727156
z" fill="none" stroke="none" style="animation-play-state:paused" ></path>


<use xlink:href="#path-naq337f6v9-2" x="0" y="0" stroke="#5e6fa3" transform="translate(323.733154296875 232.4497528076172)" style="animation-play-state:paused" ></use>
<path id="path4" d="M 403.56599416744723 785.5465295991219
c 0 53.334198770901466 -13.049857146071634 15.319397519301484 -28.36925466537312 15.319397519301484
S 346.82748483670105 838.8807283700233 346.82748483670105 785.5465295991219
s 13.049857146071634 -15.319397519301484 28.36925466537312 -15.319397519301484
S 403.56599416744723 732.2123308282204 403.56599416744723 785.5465295991219
z" fill="none" stroke="none" style="animation-play-state:paused" ></path>


<use xlink:href="#path-naq337f6v9-3" x="0" y="0" stroke="#5e6fa3" transform="translate(402.2375793457031 806.8836669921875)" style="animation-play-state:paused" ></use>
<path id="path5" d="M 500.88541812921414 602.8809076703105
c 0 38.777654569498736 -9.488149522324157 11.13826248272836 -20.626412005052515 11.13826248272836
S 459.63259411910917 641.6585622398093 459.63259411910917 602.8809076703105
s 9.488149522324157 -11.13826248272836 20.626412005052515 -11.13826248272836
S 500.88541812921414 564.1032531008118 500.88541812921414 602.8809076703105
z" fill="none" stroke="none" style="animation-play-state:paused" ></path>


<use xlink:href="#path-naq337f6v9-1" x="0" y="0" stroke="#5e6fa3" transform="translate(500.3553466796875 615.4609375)" style="animation-play-state:paused" ></use>
<path id="path6" d="M 567.3274228838783 203.63384575608762
c 0 48.053937041068785 -11.757878212176402 13.802726596902737 -25.560604809079138 13.802726596902737
S 516.2062132657201 251.68778279715642 516.2062132657201 203.63384575608762
s 11.757878212176402 -13.802726596902737 25.560604809079138 -13.802726596902737
S 567.3274228838783 155.57990871501883 567.3274228838783 203.63384575608762
z" fill="none" stroke="none" style="animation-play-state:paused" ></path>


<use xlink:href="#path-naq337f6v9-2" x="0" y="0" stroke="#5e6fa3" transform="translate(524.9984130859375 227.8086700439453)" style="animation-play-state:paused" ></use>
<path id="path7" d="M 612.8649690902888 278.2356594494061
c 0 56.23387540557427 -13.759352492853276 16.152283361175588 -29.911635854028866 16.152283361175588
S 553.0416973822311 334.4695348549804 553.0416973822311 278.2356594494061
s 13.759352492853276 -16.152283361175588 29.911635854028866 -16.152283361175588
S 612.8649690902888 222.00178404383183 612.8649690902888 278.2356594494061
z" fill="none" stroke="none" style="animation-play-state:paused" ></path>


<use xlink:href="#path-naq337f6v9-1" x="0" y="0" stroke="#5e6fa3" transform="translate(597.2281494140625 302.12445068359375)" style="animation-play-state:paused" ></use>
<path id="path8" d="M 700.1093020688085 782.397789417519
c 0 55.42932370497887 -13.562494098026743 15.921188723770527 -29.48368282179727 15.921188723770527
S 641.1419364252139 837.8271131224978 641.1419364252139 782.397789417519
s 13.562494098026743 -15.921188723770527 29.48368282179727 -15.921188723770527
S 700.1093020688085 726.9684657125401 700.1093020688085 782.397789417519
z" fill="none" stroke="none" style="animation-play-state:paused" ></path>


<use xlink:href="#path-naq337f6v9-2" x="0" y="0" stroke="#93dbe9" transform="translate(658.8914794921875 803.9609375)" style="animation-play-state:paused" ></use>
<path id="path9" d="M 765.7385758538278 194.80947224835336
c 0 31.080810895517462 -7.604879261669166 8.927466959350761 -16.532346221019928 8.927466959350761
S 732.673883411788 225.89028314387082 732.673883411788 194.80947224835336
s 7.604879261669166 -8.927466959350761 16.532346221019928 -8.927466959350761
S 765.7385758538278 163.7286613528359 765.7385758538278 194.80947224835336
z" fill="none" stroke="none" style="animation-play-state:paused" ></path>


<use xlink:href="#path-naq337f6v9-3" x="0" y="0" stroke="#5e6fa3" transform="translate(733.2267456054688 205.90650939941406)" style="animation-play-state:paused" ></use>
<path id="path10" d="M 864.5271200440199 722.5891484408049
c 0 54.24190895843788 -13.271956447277352 15.580122785934286 -28.85207923321164 15.580122785934286
S 806.8229615775966 776.8310573992428 806.8229615775966 722.5891484408049
s 13.271956447277352 -15.580122785934286 28.85207923321164 -15.580122785934286
S 864.5271200440199 668.3472394823671 864.5271200440199 722.5891484408049
z" fill="none" stroke="none" style="animation-play-state:paused" ></path>


<use xlink:href="#path-naq337f6v9-2" x="0" y="0" stroke="#93dbe9" transform="translate(842.7164916992188 740.46875)" style="animation-play-state:paused" ></use>
<path id="path11" d="M 975.9788027736447 70.2469882502393
c 0 62.47832925276096 -15.287250774611723 17.94590308323985 -33.23315385785157 17.94590308323985
S 909.5124950579416 132.72531750300027 909.5124950579416 70.2469882502393
s 15.287250774611723 -17.94590308323985 33.23315385785157 -17.94590308323985
S 975.9788027736447 7.76865899747834 975.9788027736447 70.2469882502393
z" fill="none" stroke="none" style="animation-play-state:paused" ></path>


<use xlink:href="#path-naq337f6v9-3" x="0" y="0" stroke="#5e6fa3" transform="translate(949.8269653320312 90.24950408935547)" style="animation-play-state:paused" ></use>
<path id="path12" d="M 1041.2944289483657 248.02523963655486
c 0 36.4485948996349 -8.91827322012343 10.469277258405768 -19.3875504785292 10.469277258405768
S 1002.5193279913073 284.47383453618977 1002.5193279913073 248.02523963655486
s 8.91827322012343 -10.469277258405768 19.3875504785292 -10.469277258405768
S 1041.2944289483657 211.57664473691995 1041.2944289483657 248.02523963655486
z" fill="none" stroke="none" style="animation-play-state:paused" ></path>


<use xlink:href="#path-naq337f6v9-2" x="0" y="0" stroke="#689cc5" transform="translate(1029.2781982421875 261.9241638183594)" style="animation-play-state:paused" ></use>
<path id="path13" d="M 1071.1437712266502 621.5478471664155
c 0 43.477536913619815 -10.638120734183572 12.488228687954628 -23.126349422138198 12.488228687954628
S 1024.8910723823737 665.0253840800353 1024.8910723823737 621.5478471664155
s 10.638120734183572 -12.488228687954628 23.126349422138198 -12.488228687954628
S 1071.1437712266502 578.0703102527957 1071.1437712266502 621.5478471664155
z" fill="none" stroke="none" style="animation-play-state:paused" ></path>


<use xlink:href="#path-naq337f6v9-2" x="0" y="0" stroke="#5e6fa3" transform="translate(1027.1427001953125 642.7562866210938)" style="animation-play-state:paused" ></use>
<path id="path14" d="M 1148.0503831118567 738.3579043754008
c 0 19.38194561584808 -4.742390948558572 5.56715459178615 -10.309545540344722 5.56715459178615
S 1127.4312920311672 757.7398499912489 1127.4312920311672 738.3579043754008
s 4.742390948558572 -5.56715459178615 10.309545540344722 -5.56715459178615
S 1148.0503831118567 718.9759587595528 1148.0503831118567 738.3579043754008
z" fill="none" stroke="none" style="animation-play-state:paused" ></path>


<use xlink:href="#path-naq337f6v9-2" x="0" y="0" stroke="#5e6fa3" transform="translate(1128.733154296875 748.2764892578125)" style="animation-play-state:paused" ></use>
<path id="path15" d="M 1218.2723973138575 506.8890543571966
c 0 46.089791346527115 -11.27728937202259 13.238557088896085 -24.515846460918674 13.238557088896085
S 1169.24070439202 552.9788457037237 1169.24070439202 506.8890543571966
s 11.27728937202259 -13.238557088896085 24.515846460918674 -13.238557088896085
S 1218.2723973138575 460.79926301066945 1218.2723973138575 506.8890543571966
z" fill="none" stroke="none" style="animation-play-state:paused" ></path>


<use xlink:href="#path-naq337f6v9-1" x="0" y="0" stroke="#93dbe9" transform="translate(1209.7989501953125 530.0473022460938)" style="animation-play-state:paused" ></use>
<path id="path16" d="M 1292.0261981541719 716.354820535307
c 0 30.09795497141172 -7.364393237685846 8.645157279022516 -16.009550516708362 8.645157279022516
S 1260.0070971207554 746.4527755067187 1260.0070971207554 716.354820535307
s 7.364393237685846 -8.645157279022516 16.009550516708362 -8.645157279022516
S 1292.0261981541719 686.2568655638953 1292.0261981541719 716.354820535307
z" fill="none" stroke="none" style="animation-play-state:paused" ></path>


<use xlink:href="#path-naq337f6v9-1" x="0" y="0" stroke="#689cc5" transform="translate(1290.2518310546875 731.4191284179688)" style="animation-play-state:paused" ></use>
<path id="path17" d="M 1432.8108422799235 21.78594777412509
c 0 37.21761193883171 -9.106436963756693 10.690165131366555 -19.796602095123248 10.690165131366555
S 1393.217638089677 59.0035597129568 1393.217638089677 21.78594777412509
s 9.106436963756693 -10.690165131366555 19.796602095123248 -10.690165131366555
S 1432.8108422799235 -15.431664164706618 1432.8108422799235 21.78594777412509
z" fill="none" stroke="none" style="animation-play-state:paused" ></path>


<use xlink:href="#path-naq337f6v9-3" x="0" y="0" stroke="#689cc5" transform="translate(1422.9896240234375 38.05537414550781)" style="animation-play-state:paused" ></use></g></svg>