<?xml version="1.0" encoding="utf-8"?><svg xmlns="http://www.w3.org/2000/svg" xmlns:xlink="http://www.w3.org/1999/xlink" width="1440" height="820" preserveAspectRatio="xMidYMid" viewBox="0 0 1440 820" style="z-index:1;margin-right:-2px;display:block;background-repeat-y:initial;background-repeat-x:initial;background-color:rgb(255, 255, 255);animation-play-state:paused" ><g transform="translate(720,410) scale(1,1) translate(-720,-410)" style="animation-play-state:paused" ><linearGradient id="lg-0.9617276785636483" x1="0" x2="1" y1="0" y2="0" style="animation-play-state:paused" ><stop stop-color="#ff00ff" offset="0" style="animation-play-state:paused" ></stop>

  
<stop stop-color="#00ffff" offset="1" style="animation-play-state:paused" ></stop></linearGradient>
<path d="M0 0M0 745.9096069335938Q144 684.3482666015625 288 675.17626953125T576 681.3296508789062T864 642.4439697265625T1152 593.1797485351562T1440 560.7140502929688L1440 260.7079772949219Q1296 238.9020233154297 1152 230.85662841796875T864 132.694091796875T576 175.07180786132812T288 113.57027435302734T0 68.95061492919922Z" fill="url(#lg-0.9617276785636483)" opacity="0.4" style="opacity:0.4000000059604645;animation-play-state:paused" ></path>
<path d="M0 0M0 711.36279296875Q144 746.238525390625 288 740.7551879882812T576 677.8297119140625T864 620.9342651367188T1152 627.664794921875T1440 617.2180786132812L1440 243.561767578125Q1296 213.90447998046875 1152 207.35867309570312T864 161.0028076171875T576 129.4394989013672T288 132.5521240234375T0 58.09213638305664Z" fill="url(#lg-0.9617276785636483)" opacity="0.4" style="opacity:0.4000000059604645;animation-play-state:paused" ></path>
<path d="M0 0M0 763.4097900390625Q144 726.43798828125 288 723.044921875T576 681.908203125T864 639.787353515625T1152 619.419189453125T1440 597.4984130859375L1440 253.2065887451172Q1296 173.67916870117188 1152 164.37115478515625T864 202.85980224609375T576 151.20211791992188T288 90.99193572998047T0 94.42141723632812Z" fill="url(#lg-0.9617276785636483)" opacity="0.4" style="opacity:0.4000000059604645;animation-play-state:paused" ></path>
<path d="M0 0M0 734.791259765625Q144 719.7748413085938 288 717.6732788085938T576 646.4838256835938T864 686.1326293945312T1152 640.6104736328125T1440 581.8525390625L1440 226.42526245117188Q1296 209.1675567626953 1152 202.30747985839844T864 137.52108764648438T576 148.0234832763672T288 117.66007995605469T0 117.09827423095703Z" fill="url(#lg-0.9617276785636483)" opacity="0.4" style="opacity:0.4000000059604645;animation-play-state:paused" ></path></g></svg>