<svg width="219" height="78" viewBox="0 0 219 78" fill="none" xmlns="http://www.w3.org/2000/svg">
<path d="M100.21 12V33H97.75L85.15 17.34V33H82.15V12H84.61L97.21 27.66V12H100.21ZM106.076 17.1H108.956V33H106.076V17.1ZM107.516 14.04C106.956 14.04 106.486 13.86 106.106 13.5C105.746 13.14 105.566 12.7 105.566 12.18C105.566 11.66 105.746 11.22 106.106 10.86C106.486 10.48 106.956 10.29 107.516 10.29C108.076 10.29 108.536 10.47 108.896 10.83C109.276 11.17 109.466 11.6 109.466 12.12C109.466 12.66 109.276 13.12 108.896 13.5C108.536 13.86 108.076 14.04 107.516 14.04ZM122.945 16.95C124.965 16.95 126.565 17.54 127.745 18.72C128.945 19.88 129.545 21.59 129.545 23.85V33H126.665V24.18C126.665 22.64 126.295 21.48 125.555 20.7C124.815 19.92 123.755 19.53 122.375 19.53C120.815 19.53 119.585 19.99 118.685 20.91C117.785 21.81 117.335 23.11 117.335 24.81V33H114.455V10.74H117.335V19.35C117.935 18.59 118.715 18 119.675 17.58C120.655 17.16 121.745 16.95 122.945 16.95ZM141.772 33.18C140.192 33.18 138.772 32.83 137.512 32.13C136.252 31.43 135.262 30.47 134.542 29.25C133.842 28.01 133.492 26.61 133.492 25.05C133.492 23.49 133.842 22.1 134.542 20.88C135.262 19.64 136.252 18.68 137.512 18C138.772 17.3 140.192 16.95 141.772 16.95C143.352 16.95 144.762 17.3 146.002 18C147.262 18.68 148.242 19.64 148.942 20.88C149.662 22.1 150.022 23.49 150.022 25.05C150.022 26.61 149.662 28.01 148.942 29.25C148.242 30.47 147.262 31.43 146.002 32.13C144.762 32.83 143.352 33.18 141.772 33.18ZM141.772 30.66C142.792 30.66 143.702 30.43 144.502 29.97C145.322 29.49 145.962 28.83 146.422 27.99C146.882 27.13 147.112 26.15 147.112 25.05C147.112 23.95 146.882 22.98 146.422 22.14C145.962 21.28 145.322 20.62 144.502 20.16C143.702 19.7 142.792 19.47 141.772 19.47C140.752 19.47 139.832 19.7 139.012 20.16C138.212 20.62 137.572 21.28 137.092 22.14C136.632 22.98 136.402 23.95 136.402 25.05C136.402 26.15 136.632 27.13 137.092 27.99C137.572 28.83 138.212 29.49 139.012 29.97C139.832 30.43 140.752 30.66 141.772 30.66ZM162.495 16.95C164.515 16.95 166.115 17.54 167.295 18.72C168.495 19.88 169.095 21.59 169.095 23.85V33H166.215V24.18C166.215 22.64 165.845 21.48 165.105 20.7C164.365 19.92 163.305 19.53 161.925 19.53C160.365 19.53 159.135 19.99 158.235 20.91C157.335 21.81 156.885 23.11 156.885 24.81V33H154.005V17.1H156.765V19.5C157.345 18.68 158.125 18.05 159.105 17.61C160.105 17.17 161.235 16.95 162.495 16.95ZM189.723 17.1V30.84C189.723 33.62 189.033 35.67 187.653 36.99C186.273 38.33 184.213 39 181.473 39C179.973 39 178.543 38.79 177.183 38.37C175.823 37.97 174.723 37.39 173.883 36.63L175.263 34.41C176.003 35.05 176.913 35.55 177.993 35.91C179.093 36.29 180.223 36.48 181.383 36.48C183.243 36.48 184.613 36.04 185.493 35.16C186.393 34.28 186.843 32.94 186.843 31.14V29.88C186.163 30.7 185.323 31.32 184.323 31.74C183.343 32.14 182.273 32.34 181.113 32.34C179.593 32.34 178.213 32.02 176.973 31.38C175.753 30.72 174.793 29.81 174.093 28.65C173.393 27.47 173.043 26.13 173.043 24.63C173.043 23.13 173.393 21.8 174.093 20.64C174.793 19.46 175.753 18.55 176.973 17.91C178.213 17.27 179.593 16.95 181.113 16.95C182.313 16.95 183.423 17.17 184.443 17.61C185.483 18.05 186.333 18.7 186.993 19.56V17.1H189.723ZM181.443 29.82C182.483 29.82 183.413 29.6 184.233 29.16C185.073 28.72 185.723 28.11 186.183 27.33C186.663 26.53 186.903 25.63 186.903 24.63C186.903 23.09 186.393 21.85 185.373 20.91C184.353 19.95 183.043 19.47 181.443 19.47C179.823 19.47 178.503 19.95 177.483 20.91C176.463 21.85 175.953 23.09 175.953 24.63C175.953 25.63 176.183 26.53 176.643 27.33C177.123 28.11 177.773 28.72 178.593 29.16C179.433 29.6 180.383 29.82 181.443 29.82ZM202.036 33.18C200.456 33.18 199.036 32.83 197.776 32.13C196.516 31.43 195.526 30.47 194.806 29.25C194.106 28.01 193.756 26.61 193.756 25.05C193.756 23.49 194.106 22.1 194.806 20.88C195.526 19.64 196.516 18.68 197.776 18C199.036 17.3 200.456 16.95 202.036 16.95C203.616 16.95 205.026 17.3 206.266 18C207.526 18.68 208.506 19.64 209.206 20.88C209.926 22.1 210.286 23.49 210.286 25.05C210.286 26.61 209.926 28.01 209.206 29.25C208.506 30.47 207.526 31.43 206.266 32.13C205.026 32.83 203.616 33.18 202.036 33.18ZM202.036 30.66C203.056 30.66 203.966 30.43 204.766 29.97C205.586 29.49 206.226 28.83 206.686 27.99C207.146 27.13 207.376 26.15 207.376 25.05C207.376 23.95 207.146 22.98 206.686 22.14C206.226 21.28 205.586 20.62 204.766 20.16C203.966 19.7 203.056 19.47 202.036 19.47C201.016 19.47 200.096 19.7 199.276 20.16C198.476 20.62 197.836 21.28 197.356 22.14C196.896 22.98 196.666 23.95 196.666 25.05C196.666 26.15 196.896 27.13 197.356 27.99C197.836 28.83 198.476 29.49 199.276 29.97C200.096 30.43 201.016 30.66 202.036 30.66Z" fill="#EE423E"/>
<path d="M96.7 53.38H99.58V61.57C98.54 62.43 97.33 63.09 95.95 63.55C94.57 64.01 93.13 64.24 91.63 64.24C89.51 64.24 87.6 63.78 85.9 62.86C84.2 61.92 82.86 60.64 81.88 59.02C80.92 57.38 80.44 55.54 80.44 53.5C80.44 51.46 80.92 49.62 81.88 47.98C82.86 46.34 84.2 45.06 85.9 44.14C87.62 43.22 89.55 42.76 91.69 42.76C93.37 42.76 94.89 43.04 96.25 43.6C97.63 44.14 98.8 44.94 99.76 46L97.9 47.86C96.22 46.24 94.19 45.43 91.81 45.43C90.21 45.43 88.77 45.78 87.49 46.48C86.23 47.16 85.24 48.12 84.52 49.36C83.8 50.58 83.44 51.96 83.44 53.5C83.44 55.02 83.8 56.4 84.52 57.64C85.24 58.86 86.23 59.82 87.49 60.52C88.77 61.22 90.2 61.57 91.78 61.57C93.66 61.57 95.3 61.12 96.7 60.22V53.38ZM110.694 47.95C112.894 47.95 114.574 48.49 115.734 49.57C116.914 50.65 117.504 52.26 117.504 54.4V64H114.774V61.9C114.294 62.64 113.604 63.21 112.704 63.61C111.824 63.99 110.774 64.18 109.554 64.18C107.774 64.18 106.344 63.75 105.264 62.89C104.204 62.03 103.674 60.9 103.674 59.5C103.674 58.1 104.184 56.98 105.204 56.14C106.224 55.28 107.844 54.85 110.064 54.85H114.624V54.28C114.624 53.04 114.264 52.09 113.544 51.43C112.824 50.77 111.764 50.44 110.364 50.44C109.424 50.44 108.504 50.6 107.604 50.92C106.704 51.22 105.944 51.63 105.324 52.15L104.124 49.99C104.944 49.33 105.924 48.83 107.064 48.49C108.204 48.13 109.414 47.95 110.694 47.95ZM110.034 61.96C111.134 61.96 112.084 61.72 112.884 61.24C113.684 60.74 114.264 60.04 114.624 59.14V56.92H110.184C107.744 56.92 106.524 57.74 106.524 59.38C106.524 60.18 106.834 60.81 107.454 61.27C108.074 61.73 108.934 61.96 110.034 61.96ZM122.834 48.1H125.714V64H122.834V48.1ZM124.274 45.04C123.714 45.04 123.244 44.86 122.864 44.5C122.504 44.14 122.324 43.7 122.324 43.18C122.324 42.66 122.504 42.22 122.864 41.86C123.244 41.48 123.714 41.29 124.274 41.29C124.834 41.29 125.294 41.47 125.654 41.83C126.034 42.17 126.224 42.6 126.224 43.12C126.224 43.66 126.034 44.12 125.654 44.5C125.294 44.86 124.834 45.04 124.274 45.04ZM129.172 70C128.472 70 127.822 69.92 127.222 69.76C126.622 69.6 126.122 69.36 125.722 69.04L126.652 66.82C127.252 67.32 128.032 67.57 128.992 67.57C129.752 67.57 130.332 67.33 130.732 66.85C131.152 66.39 131.362 65.7 131.362 64.78V48.1H134.242V64.72C134.242 66.36 133.802 67.65 132.922 68.59C132.042 69.53 130.792 70 129.172 70ZM132.802 45.04C132.242 45.04 131.772 44.86 131.392 44.5C131.032 44.14 130.852 43.7 130.852 43.18C130.852 42.66 131.032 42.22 131.392 41.86C131.772 41.48 132.242 41.29 132.802 41.29C133.362 41.29 133.822 41.47 134.182 41.83C134.562 42.17 134.752 42.6 134.752 43.12C134.752 43.66 134.562 44.12 134.182 44.5C133.822 44.86 133.362 45.04 132.802 45.04ZM139.738 48.1H142.618V64H139.738V48.1ZM141.178 45.04C140.618 45.04 140.148 44.86 139.768 44.5C139.408 44.14 139.228 43.7 139.228 43.18C139.228 42.66 139.408 42.22 139.768 41.86C140.148 41.48 140.618 41.29 141.178 41.29C141.738 41.29 142.198 41.47 142.558 41.83C142.938 42.17 143.128 42.6 143.128 43.12C143.128 43.66 142.938 44.12 142.558 44.5C142.198 44.86 141.738 45.04 141.178 45.04ZM156.607 47.95C158.627 47.95 160.227 48.54 161.407 49.72C162.607 50.88 163.207 52.59 163.207 54.85V64H160.327V55.18C160.327 53.64 159.957 52.48 159.217 51.7C158.477 50.92 157.417 50.53 156.037 50.53C154.477 50.53 153.247 50.99 152.347 51.91C151.447 52.81 150.997 54.11 150.997 55.81V64H148.117V48.1H150.877V50.5C151.457 49.68 152.237 49.05 153.217 48.61C154.217 48.17 155.347 47.95 156.607 47.95Z" fill="#00AEAF"/>
<g filter="url(#filter0_d)">
<rect x="4.5" y="0.499992" width="69" height="69" rx="9.5" stroke="black"/>
<path d="M47.3707 52.7H50.0687V62.846C48.8274 63.9353 47.358 64.7713 45.6607 65.354C43.9634 65.9367 42.1774 66.228 40.3027 66.228C37.6427 66.228 35.2487 65.6453 33.1207 64.48C30.9927 63.3147 29.3207 61.706 28.1047 59.654C26.8887 57.5767 26.2807 55.2587 26.2807 52.7C26.2807 50.1413 26.8887 47.836 28.1047 45.784C29.3207 43.7067 30.9927 42.0853 33.1207 40.92C35.2487 39.7547 37.6554 39.172 40.3407 39.172C42.3674 39.172 44.2294 39.5013 45.9267 40.16C47.624 40.7933 49.0554 41.7433 50.2207 43.01L48.4727 44.796C46.37 42.7187 43.6974 41.68 40.4547 41.68C38.3014 41.68 36.3507 42.1613 34.6027 43.124C32.88 44.0613 31.5247 45.3787 30.5367 47.076C29.5487 48.748 29.0547 50.6227 29.0547 52.7C29.0547 54.7773 29.5487 56.652 30.5367 58.324C31.5247 59.996 32.88 61.3133 34.6027 62.276C36.3254 63.2387 38.2634 63.72 40.4167 63.72C43.1527 63.72 45.4707 63.036 47.3707 61.668V52.7Z" fill="#00AEAF"/>
<path d="M50.1059 4.39999V31H47.7879L30.6879 9.41599V31H27.8759V4.39999H30.1939L47.3319 25.984V4.39999H50.1059Z" fill="#EE423E"/>
</g>
<defs>
<filter id="filter0_d" x="0" y="-7.62939e-06" width="78" height="78" filterUnits="userSpaceOnUse" color-interpolation-filters="sRGB">
<feFlood flood-opacity="0" result="BackgroundImageFix"/>
<feColorMatrix in="SourceAlpha" type="matrix" values="0 0 0 0 0 0 0 0 0 0 0 0 0 0 0 0 0 0 127 0" result="hardAlpha"/>
<feOffset dy="4"/>
<feGaussianBlur stdDeviation="2"/>
<feComposite in2="hardAlpha" operator="out"/>
<feColorMatrix type="matrix" values="0 0 0 0 0 0 0 0 0 0 0 0 0 0 0 0 0 0 0.25 0"/>
<feBlend mode="normal" in2="BackgroundImageFix" result="effect1_dropShadow"/>
<feBlend mode="normal" in="SourceGraphic" in2="effect1_dropShadow" result="shape"/>
</filter>
</defs>
</svg>
