<?xml version="1.0" encoding="utf-8"?>
<!-- Generator: Adobe Illustrator 12.0.1, SVG Export Plug-In . SVG Version: 6.00 Build 51448)  -->
<!DOCTYPE svg PUBLIC "-//W3C//DTD SVG 1.1//EN" "http://www.w3.org/Graphics/SVG/1.1/DTD/svg11.dtd" [
	<!ENTITY ns_svg "http://www.w3.org/2000/svg">
	<!ENTITY ns_xlink "http://www.w3.org/1999/xlink">
]>
<svg  version="1.1" id="Layer_1" xmlns="&ns_svg;" xmlns:xlink="&ns_xlink;" width="65.177" height="138.126"
	 viewBox="0 0 65.177 138.126" overflow="visible" enable-background="new 0 0 65.177 138.126" xml:space="preserve">
<g>
	<path fill="#010101" d="M14.228,88.98l-1.984-4.062c0,0,1.606-3.306,4.44-3.306s4.817,4.534,4.817,4.534s2.362,1.983,4.156,1.605
		c0,0,0.945,0.378,0.945,0.85c0,0.473-0.661,1.039-0.661,1.039s0.944,3.4-0.284,8.123c-1.228,4.724-1.228,9.164-1.228,9.164
		s0.851,1.133,0.567,1.982c-0.283,0.85-1.417,1.039-1.417,1.039s-0.944,1.605-4.628,1.605c-3.684,0-3.212-2.172-3.212-2.172
		s-0.472-7.179-1.889-12.469C12.433,91.625,14.228,88.98,14.228,88.98"/>
	<path fill="#010101" d="M15.456,111.271c0,0-5.478,2.834-5.289,6.328c0.188,3.495,3.495,5.479,3.495,5.479s1.133-0.189,1.322-0.851
		c0.189-0.66,2.078-2.172,3.023-2.361c0.944-0.188,3.589-1.039,3.305-2.267c-0.283-1.228,1.323-1.7,1.323-1.7
		s2.361-0.377,2.361-3.117l-1.322-1.983c0,0-1.322,1.417-4.723,1.417C15.551,112.216,15.456,111.271,15.456,111.271"/>
	<path fill="#010101" d="M16.797,21.229c0,0-2.065,6.194-0.607,13.725c0,0-4.859,1.943-9.474-0.85l1.215-1.579
		c0,0-0.122-4.373,1.336-7.409l-1.215-2.672l3.401-0.243C11.454,22.2,13.882,20.256,16.797,21.229"/>
	<path fill="#010101" d="M32.588,0c0,0,5.703,0.094,6.459,1.795c0.755,1.7,2.36,13.979,2.36,13.979s-5.514,8.218-8.819,8.218
		c-3.306,0-8.82-8.218-8.82-8.218S25.374,3.495,26.13,1.795C26.885,0.094,32.588,0,32.588,0"/>
	<path fill="#010101" d="M50.948,88.98l1.984-4.062c0,0-1.607-3.306-4.44-3.306c-2.834,0-4.817,4.534-4.817,4.534
		s-2.361,1.983-4.156,1.605c0,0-0.944,0.378-0.944,0.85c0,0.473,0.661,1.039,0.661,1.039s-0.944,3.4,0.283,8.123
		c1.229,4.724,1.229,9.164,1.229,9.164c-0.001,0-0.852,1.133-0.566,1.982c0.282,0.85,1.416,1.039,1.416,1.039
		s0.944,1.605,4.629,1.605c3.684,0,3.211-2.172,3.211-2.172s0.473-7.179,1.889-12.469C52.742,91.625,50.948,88.98,50.948,88.98"/>
	<path fill="#010101" d="M49.72,111.271c0,0,5.479,2.834,5.29,6.328c-0.188,3.495-3.495,5.479-3.495,5.479s-1.134-0.189-1.322-0.851
		c-0.189-0.66-2.078-2.172-3.022-2.361c-0.944-0.188-3.59-1.039-3.306-2.267c0.283-1.228-1.322-1.7-1.322-1.7
		s-2.362-0.377-2.362-3.117l1.322-1.983c0,0,1.323,1.417,4.724,1.417S49.72,111.271,49.72,111.271"/>
	<path fill="#FFFFFF" d="M32.588,6.411c0,0,2.31-0.121,4.616,0.486v1.457c0,0-2.065-0.242-3.887-0.364v8.016
		c0,0-0.244-0.243-0.729-0.243c-0.486,0-0.729,0.243-0.729,0.243V7.989c-1.822,0.122-3.887,0.364-3.887,0.364V6.896
		C30.28,6.29,32.588,6.411,32.588,6.411"/>
	<path fill="#010101" d="M22.022,15.491c0,0-2.531-0.158-4.429,4.588l3.796-1.424l-0.791-1.74
		C20.599,16.915,21.39,15.808,22.022,15.491"/>
	<path fill="#010101" d="M43.221,15.491c0,0,2.53-0.158,4.43,4.588l-3.797-1.424l0.791-1.74
		C44.645,16.915,43.854,15.808,43.221,15.491"/>
	<path fill="#010101" d="M32.643,120.911c0.629,0,1.93-5.099,1.93-5.099V64.267h-3.859v51.545
		C30.713,115.812,31.967,120.911,32.643,120.911"/>
	<path fill="#010101" d="M57.245,32.524c0,0,0.121-4.373-1.336-7.409l1.215-2.672L53.723,22.2c0,0-2.104-1.682-4.746-1.132
		c0.101,0.089,0.202,0.181,0.298,0.277c1.17,1.169,1.812,2.722,1.812,4.375c0,1.542-0.561,2.997-1.585,4.134
		c-0.022,1.58-0.169,3.301-0.517,5.099c0,0,4.859,1.944,9.475-0.85L57.245,32.524z"/>
	<path fill="#010101" d="M48.976,21.645c2.25,2.25,2.25,5.899,0,8.15c-2.251,2.25-5.899,2.25-8.15,0c-2.251-2.251-2.251-5.9,0-8.15
		C43.075,19.394,46.725,19.394,48.976,21.645"/>
	<path fill="#010101" d="M48.335,22.285c1.896,1.897,1.896,4.972,0,6.87c-1.897,1.896-4.973,1.896-6.869-0.001s-1.896-4.972,0-6.869
		S46.438,20.388,48.335,22.285"/>
	<path fill="#010101" d="M48.081,22.539c1.758,1.757,1.758,4.606,0,6.363c-1.756,1.757-4.605,1.757-6.363,0
		c-1.756-1.757-1.756-4.606,0-6.363C43.476,20.781,46.325,20.782,48.081,22.539"/>
	
		<rect x="43.215" y="24.035" transform="matrix(0.7073 -0.7069 0.7069 0.7073 -5.0397 39.2672)" fill="#FFFFFF" width="3.372" height="3.37"/>
	<polygon fill="#010101" points="44.797,27.459 44.896,25.719 43.153,25.816 	"/>
	<polygon fill="#010101" points="43.157,25.62 44.896,25.718 44.798,23.979 	"/>
	<polygon fill="#010101" points="44.995,23.971 44.896,25.718 46.643,25.619 	"/>
	<polygon fill="#010101" points="44.896,25.718 44.995,27.469 46.647,25.817 	"/>
	<path fill="#010101" d="M29.59,43.338c0-0.468,0.379-0.848,0.848-0.848h4.309c0.468,0,0.848,0.38,0.848,0.848v0.557
		c0,0.468-0.38,0.847-0.848,0.847h-4.309c-0.469,0-0.848-0.379-0.848-0.847V43.338z"/>
	<path fill="#010101" d="M29.59,45.777c0-0.468,0.379-0.848,0.848-0.848h4.309c0.468,0,0.848,0.38,0.848,0.848v0.557
		c0,0.468-0.38,0.847-0.848,0.847h-4.309c-0.469,0-0.848-0.379-0.848-0.847V45.777z"/>
	<path fill="#010101" d="M29.928,48.249c0-0.416,0.337-0.752,0.752-0.752h3.824c0.416,0,0.753,0.336,0.753,0.752v0.494
		c0,0.415-0.337,0.752-0.753,0.752H30.68c-0.415,0-0.752-0.337-0.752-0.752V48.249z"/>
	<path fill="#010101" d="M30.084,50.515c0-0.391,0.317-0.708,0.708-0.708h3.6c0.393,0,0.709,0.317,0.709,0.708v0.465
		c0,0.391-0.316,0.708-0.709,0.708h-3.6c-0.391,0-0.708-0.317-0.708-0.708V50.515z"/>
	<path fill="#010101" d="M29.59,53.095c0-0.468,0.379-0.848,0.848-0.848h4.309c0.468,0,0.848,0.38,0.848,0.848v0.557
		c0,0.468-0.38,0.847-0.848,0.847h-4.309c-0.469,0-0.848-0.379-0.848-0.847V53.095z"/>
	<path fill="#010101" d="M29.59,55.535c0-0.468,0.379-0.848,0.848-0.848h4.309c0.468,0,0.848,0.38,0.848,0.848v0.557
		c0,0.468-0.38,0.847-0.848,0.847h-4.309c-0.469,0-0.848-0.379-0.848-0.847V55.535z"/>
	<path fill="#010101" d="M29.928,58.005c0-0.415,0.337-0.752,0.752-0.752h3.824c0.416,0,0.753,0.337,0.753,0.752V58.5
		c0,0.415-0.337,0.752-0.753,0.752H30.68c-0.415,0-0.752-0.337-0.752-0.752V58.005z"/>
	<path fill="#010101" d="M31.047,42.067h3.19l0.748-1.746l-1.102-0.689l0.137-1.653c0,0-0.551-0.414-1.378-0.414
		s-1.378,0.414-1.378,0.414l0.138,1.653l-1.103,0.689L31.047,42.067z"/>
	<path fill="#010101" d="M39.947,61.923H34.71l-0.003-0.104c-0.101,0.029-0.205,0.05-0.315,0.05h-3.6
		c-0.074,0-0.145-0.008-0.215-0.022l-0.002,0.077h-5.237c0,0-3.445,0.276-3.445,2.894l1.378,0.551c0,0,0.551-1.791,2.067-1.791
		h14.609c1.516,0,2.067,1.791,2.067,1.791l1.379-0.551C43.394,62.2,39.947,61.923,39.947,61.923"/>
	<path fill="#010101" d="M30.084,60.271c0-0.391,0.317-0.708,0.708-0.708h3.6c0.393,0,0.709,0.317,0.709,0.708v0.465
		c0,0.391-0.316,0.708-0.709,0.708h-3.6c-0.391,0-0.708-0.317-0.708-0.708V60.271z"/>
	<path fill="#010101" d="M36.157,43.523l-0.139,0.046v0.326c0,0.209-0.053,0.405-0.143,0.578v0.726
		c0.09,0.174,0.143,0.37,0.143,0.579v0.556c0,0.209-0.053,0.404-0.143,0.578v1.865c1.033,0,1.22-0.469,1.22-0.469s0-1.783,0-3.096
		C37.096,43.898,36.157,43.523,36.157,43.523"/>
	<path fill="#010101" d="M51.893,69.238c-0.378-6.895-3.022-9.068-3.022-9.068s-2.596,1.6-5.162,3.832
		c0.069,0.249,0.108,0.52,0.108,0.816v0.287l-1.646,0.658l-0.424,0.168l-0.016-0.049c-1.503,1.584-2.716,3.32-2.968,4.961
		c0,0-1.04,1.983-2.552,2.457c0,0,0.379,9.351,1.89,12.939c0,0,3.212,0.566,4.629-0.85c0,0,2.644-4.534,5.006-4.534
		c2.361,0,3.022,0.661,3.022,0.661S52.271,76.132,51.893,69.238"/>
	<path fill="#010101" d="M26.413,70.843c-0.252-1.634-1.454-3.362-2.948-4.939l-1.996-0.799v-0.287c0-0.265,0.033-0.51,0.09-0.738
		c-2.596-2.273-5.253-3.91-5.253-3.91s-2.645,2.173-3.022,9.068c-0.378,6.895,1.133,12.279,1.133,12.279s0.661-0.662,3.023-0.662
		c2.361,0,5.006,4.535,5.006,4.535c1.417,1.416,4.628,0.85,4.628,0.85c1.511-3.59,1.889-12.94,1.889-12.94
		C27.452,72.827,26.413,70.843,26.413,70.843"/>
	<path fill="#010101" d="M30.289,64.001h-4.951c-0.685,0-1.132,0.497-1.388,0.918c1.016,1.075,1.949,2.296,2.651,3.657
		c0,0,0.666,3.066,3.688,4.154V64.001z"/>
	<path fill="#010101" d="M39.947,64.001h-4.951v8.692c2.931-1.121,3.578-4.117,3.578-4.117c0.717-1.39,1.675-2.634,2.717-3.727
		C41.029,64.445,40.595,64.001,39.947,64.001"/>
	<path fill="#010101" d="M25.321,61.5h4.641c-0.186-0.202-0.302-0.468-0.302-0.763v-0.465c0-0.237,0.074-0.457,0.2-0.638
		c-10.728-0.521-11.004-4.093-11.004-4.093l-2.55,3.873c0,0,2.844,1.293,5.715,3.694c0.814-1.093,2.344-1.532,3.283-1.607
		L25.321,61.5z"/>
	<path fill="#010101" d="M29.166,56.091v-0.557c0-0.208,0.053-0.404,0.142-0.578V54.23c-0.089-0.174-0.142-0.37-0.142-0.578v-0.42
		l-0.139-0.046c0,0-0.938,0.375-0.938,1.689v3.096c0,0,0.187,0.469,1.219,0.469v-1.771C29.219,56.495,29.166,56.299,29.166,56.091"
		/>
	<path fill="#010101" d="M49.854,50.465c-1.406-3.659-5.441-3.19-5.441-3.19l-8.395,5.82v0.557c0,0.373-0.164,0.708-0.42,0.941
		c0.256,0.233,0.42,0.568,0.42,0.942v0.556c0,0.478-0.266,0.895-0.656,1.112c0.195,0.211,0.318,0.492,0.318,0.802v0.494
		c0,0.398-0.198,0.748-0.502,0.962c0.213,0.205,0.346,0.492,0.346,0.81v0.465l13.393-4.36
		C48.917,56.376,51.263,54.124,49.854,50.465"/>
	<path fill="#010101" d="M35.409,61.22c-0.051,0.102-0.11,0.197-0.186,0.28h4.74l0.018,0.002c0.922,0.073,2.416,0.498,3.242,1.551
		c2.846-2.365,5.646-3.639,5.646-3.639l-1.418-2.154L35.409,61.22z"/>
	<path fill="#010101" d="M49.065,41.288c0,0,4.551,1.119,6.392,4.296c2.989-4.961,1.666-10.023,1.666-10.023
		c-3.765,1.336-8.138,0.486-8.138,0.486l-0.364,4.251c0,0-0.142,0.461,0.149,1.19C48.938,41.37,49.049,41.299,49.065,41.288"/>
	<path fill="#010101" d="M49.292,41.646c0,0-1.781,1.126-2.908,2.815c-0.572,0.859-0.854,1.741-0.991,2.402
		c1.407,0.114,3.812,0.727,4.858,3.45c0.756,1.964,0.504,3.545,0.061,4.642c2.197-0.886,3.954-2.52,3.954-2.52l1.407-5.16
		C54.827,43.616,49.292,41.646,49.292,41.646"/>
	<path fill="#010101" d="M29.66,50.515c0-0.318,0.133-0.605,0.345-0.811c-0.302-0.213-0.501-0.564-0.501-0.961v-0.494
		c0-0.31,0.122-0.592,0.319-0.802c-0.391-0.217-0.657-0.634-0.657-1.112v-0.557c0-0.373,0.163-0.709,0.42-0.941
		c-0.257-0.233-0.42-0.568-0.42-0.942v-0.412l-8.583-1.461c0,0-4.034-0.282-5.442,3.753c-1.407,4.034,2.909,6.004,2.909,6.004
		l11.61-0.921V50.515z"/>
	<path fill="#010101" d="M48.489,30.758c-2.415,1.722-5.799,1.502-7.965-0.663c-0.992-0.994-1.576-2.245-1.75-3.54
		c-0.03,0.001-0.062,0.004-0.092,0.004c-0.763,0-1.381-0.618-1.381-1.381c0-0.763,0.618-1.381,1.381-1.381
		c0.112,0,0.223,0.015,0.328,0.04c0.289-0.912,0.793-1.77,1.514-2.491c0.863-0.862,1.916-1.414,3.027-1.66
		c-0.638-0.163-1.011-0.228-1.011-0.228l1.228-2.645l-1.51-0.566c0,0-5.893,9.351-9.671,9.351c-3.779,0-9.67-9.351-9.67-9.351
		l-1.511,0.566l1.227,2.645c0,0-0.163,0.029-0.456,0.095c0.58,0.164,1.005,0.696,1.005,1.328c0,0.763-0.618,1.381-1.381,1.381
		c-0.763,0-1.381-0.618-1.381-1.381c0-0.38,0.154-0.725,0.403-0.975c-0.858,0.252-1.964,0.624-3.196,1.158
		c0,0-0.944,4.817-0.944,9.257c0,4.439,0.755,5.573,0.755,5.573s4.912,3.872,9.635,4.817c0,0-3.778,0.283-9.162-3.684
		c0,0,0.094,1.417,0.755,2.267c0,0-0.423,0.341-0.226,1.422l1.331,0.922c0.5-0.058,0.829-0.04,0.841-0.039l0.021,0.001l8.564,1.458
		c0.128-0.566,0.635-0.991,1.239-0.991h0.149l-0.819-1.912c0,0,0.91-0.569,1.191-0.745c-0.03-0.367-0.136-1.63-0.136-1.63
		l0.188-0.141c0.027-0.02,0.675-0.498,1.631-0.498c0.959,0,1.606,0.478,1.633,0.498l0.188,0.141c0,0-0.105,1.263-0.135,1.63
		c0.281,0.176,1.191,0.745,1.191,0.745l-0.82,1.912h0.049c0.629,0,1.152,0.46,1.252,1.062l0.023-0.008l0.148-0.049l0.145,0.057
		c0.049,0.02,1.203,0.5,1.203,2.082v3.178l-0.029,0.076c-0.049,0.123-0.357,0.735-1.613,0.735h-0.291
		c-0.087,0.203-0.227,0.378-0.406,0.504c0.213,0.206,0.346,0.492,0.346,0.812v0.464c0,0.364-0.176,0.684-0.442,0.892
		c0.392,0.107,0.704,0.396,0.849,0.771l8.306-5.758l0.075-0.018c0.01-0.003,0.26-0.031,0.652-0.023
		c0.141-0.71,0.439-1.673,1.067-2.616c0.161-0.243,0.337-0.472,0.517-0.691l0.149-2.635c0.284-1.228-0.188-1.606-0.188-1.606
		c0.66-0.85,0.756-2.267,0.756-2.267c-5.385,3.967-9.162,3.684-9.162,3.684c4.722-0.945,9.634-4.817,9.634-4.817
		S48.44,34.835,48.489,30.758"/>
	<path fill="#010101" d="M29.703,51.279l-10.588,0.84l0.119,2.099c0,0,0.104,3.705,9.314,4.552
		c-0.629-0.177-0.815-0.549-0.853-0.642l-0.03-0.076v-3.177c0-1.583,1.156-2.063,1.205-2.082l0.144-0.058l0.192,0.064
		c0.108-0.449,0.452-0.807,0.896-0.929C29.912,51.722,29.77,51.517,29.703,51.279"/>
	<path fill="#010101" d="M57.774,93.638c-0.791-4.43-2.689-10.124-1.582-18.35c1.102-8.18-3.583-14.639-3.792-20.933
		c-0.165,0.103-2.151,1.082-2.347,1.151c-0.385,0.726-0.801,1.135-0.844,1.175l-1.342,0.442l1.629,2.471l-0.426,0.193l0.066,0.055
		c0.115,0.093,2.794,2.371,3.178,9.372c0.378,6.886-1.133,12.363-1.148,12.417l-0.123,0.413c1.44,1.018,2.222,2.591,2.269,2.688
		c0,0-1.712,3.879-1.888,4.236c0.336,0.602,0.867,1.98,0.867,4.092c0,1.118-0.149,2.442-0.558,3.963
		c-0.644,2.408-1.093,5.229-1.39,7.568c4.096-0.73,6.955-1.777,6.955-1.777S58.565,98.068,57.774,93.638"/>
	<path fill="#010101" d="M39.108,97.871c-0.496-1.908-0.646-3.6-0.646-4.954c0-1.562,0.199-2.666,0.304-3.137
		c-0.246-0.252-0.615-0.708-0.615-1.179c0-0.703,0.927-1.129,1.21-1.242l-1.65-0.954c-1.522-3.618-1.905-12.703-1.92-13.089
		l-0.795-0.17v31.037c1.715,0.527,3.488,0.836,5.254,0.984C40.136,103.459,39.847,100.708,39.108,97.871"/>
	<path fill="#010101" d="M13.441,97.023c-0.413-1.539-0.561-2.864-0.561-3.975c0-2.24,0.6-3.591,0.869-4.085
		c-0.178-0.364-1.886-4.231-1.886-4.231c0.048-0.096,0.827-1.666,2.263-2.683l-0.117-0.418c-0.015-0.055-1.526-5.53-1.149-12.417
		c0.384-7.001,3.063-9.279,3.177-9.372l0.067-0.055l-0.424-0.194l2.823-4.286c0,0,0.309-1.031,0.308-1.065
		c0,0-0.047-0.837-0.118-2.09c0,0-1.003-0.075-1.269-0.235c-1.538,0.168-3.029-0.241-4.211-0.746
		c-0.202,0.944-0.338,1.971-0.365,3.076c-0.158,6.328-4.904,12.814-3.797,21.04c1.107,8.226-0.791,13.921-1.582,18.351
		s0.475,9.176,0.475,9.176s2.395-0.93,6.421-1.411C14.116,99.919,13.811,98.404,13.441,97.023"/>
	<path fill="#010101" d="M29.387,73.316c-0.016,0.386-0.399,9.471-1.922,13.088l-1.65,0.955c0.284,0.113,1.211,0.539,1.211,1.242
		c0,0.471-0.369,0.926-0.616,1.178c0.104,0.472,0.304,1.578,0.304,3.141c0,1.354-0.151,3.045-0.646,4.951
		c-0.334,1.281-0.575,2.544-0.75,3.701c1.586,0.232,3.248,0.565,4.972,1.027V73.181L29.387,73.316z"/>
	<path fill="#010101" d="M11.5,42.921c1.477-2.339,3.614-2.723,5.051-2.67l-0.36-4.204c0,0-4.373,0.85-8.138-0.486
		c0,0-1.336,5.101,1.7,10.081c0,0,0.214,0.013,0.595-0.04C10.539,44.787,10.893,43.883,11.5,42.921"/>
	<path fill="#010101" d="M14.742,45.635c0.944-2.707,3.016-3.605,4.428-3.899l-1.213-0.84c0,0-3.847-1.314-6.099,2.252
		c-2.251,3.565-0.844,6.286-0.844,6.286s2.778,2.15,5.824,2.094C15.564,50.596,13.694,48.638,14.742,45.635"/>
	<path fill="#010101" d="M24.893,111.1c0.378,0.568,0.95,1.427,0.95,1.427v0.256c0,2.653-1.924,3.726-2.98,3.935
		c-0.196,0.062-0.735,0.299-0.735,0.61l0.01,0.082l0.043,0.371c0,0.328-0.102,0.66-0.294,0.957
		c-0.892,1.381-3.687,1.955-3.714,1.961c-0.727,0.145-2.239,1.434-2.378,1.771c-0.317,1.111-1.717,1.398-1.995,1.444l-0.308,0.052
		l-0.267-0.161c-0.151-0.09-3.694-2.258-3.905-6.16c-0.004-0.075-0.006-0.151-0.006-0.228c0-1.188,0.504-2.381,1.494-3.562
		c-4.891,1.717-7.664,3.93-7.664,6.186c0,5.029,13.483,9.277,29.444,9.277c15.96,0,29.444-4.248,29.444-9.277
		c0-2.256-2.773-4.469-7.664-6.184c0.99,1.18,1.494,2.373,1.494,3.561c0,0.076-0.002,0.152-0.006,0.228
		c-0.211,3.9-3.756,6.07-3.905,6.16l-0.269,0.161l-0.308-0.052c-0.276-0.046-1.678-0.333-1.997-1.453
		c-0.137-0.329-1.648-1.618-2.375-1.763c-0.027-0.006-2.822-0.578-3.714-1.961c-0.192-0.297-0.294-0.627-0.294-0.957l0.043-0.371
		l0.009-0.082c0-0.312-0.538-0.549-0.735-0.61c-1.055-0.209-2.979-1.28-2.979-3.935v-0.256c0,0,0.572-0.858,0.951-1.427
		c-1.595-0.138-3.222-0.235-4.863-0.286v5.104l-0.026,0.103c-1.354,5.305-2.047,5.737-2.752,5.737c-0.676,0-1.447-0.444-2.751-5.745
		l-0.025-0.099v-5.104C28.18,110.861,26.516,110.959,24.893,111.1"/>
	<path fill="#010101" d="M53.604,127.838c-5.627,1.773-13.09,2.75-21.016,2.75c-7.928,0-15.391-0.977-21.017-2.75
		c-5.087-1.603-8.349-3.771-9.358-6.176C1.328,123.015,0,125.127,0,126.263c0,3.047,3.423,6.069,9.392,8.291
		c6.19,2.305,14.427,3.572,23.197,3.572c8.768,0,17.006-1.268,23.194-3.572c5.969-2.222,9.394-5.244,9.394-8.291
		c0-1.136-1.328-3.248-2.215-4.601C61.953,124.068,58.69,126.236,53.604,127.838"/>
	<polygon fill="#FFFFFF" points="33.149,64.678 33.149,111.582 34.171,115.771 32.638,111.275 31.105,115.771 32.127,111.582 
		32.127,64.678 	"/>
	<path fill="#FFFFFF" d="M30.242,28.938c0-1.314,1.065-2.379,2.38-2.379c1.312,0,2.377,1.065,2.377,2.379s-1.064,2.379-2.377,2.379
		C31.308,31.316,30.242,30.251,30.242,28.938"/>
	<path fill="#FFFFFF" d="M27.634,27.096c0-0.763,0.618-1.381,1.381-1.381s1.381,0.618,1.381,1.381c0,0.763-0.618,1.381-1.381,1.381
		S27.634,27.859,27.634,27.096"/>
	<path fill="#FFFFFF" d="M25.178,25.178c0-0.763,0.619-1.381,1.381-1.381c0.763,0,1.381,0.618,1.381,1.381s-0.618,1.381-1.381,1.381
		C25.797,26.559,25.178,25.941,25.178,25.178"/>
	<path fill="#FFFFFF" d="M22.723,23.183c0-0.763,0.618-1.381,1.381-1.381c0.763,0,1.381,0.618,1.381,1.381
		c0,0.763-0.618,1.381-1.381,1.381C23.341,24.564,22.723,23.946,22.723,23.183"/>
	<path fill="#FFFFFF" d="M37.608,27.096c0-0.763-0.617-1.381-1.381-1.381s-1.381,0.618-1.381,1.381c0,0.763,0.617,1.381,1.381,1.381
		S37.608,27.859,37.608,27.096"/>
</g>
</svg>
