<svg width="90" height="90" viewBox="0 0 90 90" fill="none" xmlns="http://www.w3.org/2000/svg">
<rect width="90" height="90" fill="#F8A45B"/>
<path d="M28.8907 33.1139C32.3555 32.2704 34.8157 26.2849 34.8157 26.2849C34.8157 26.2849 42.6043 25.1463 42.9119 21.3488C43.0953 19.0844 42.3946 17.4088 40.9634 15.5542C39.8034 14.051 37.8773 12.1124 35.2903 12.2658C33.8252 12.3527 31.6399 13.4715 31.6399 13.4715C31.6399 13.4715 29.7372 11.5017 28.2122 10.7756C25.7534 9.60479 22.9588 8.82145 21.0599 10.5858C19.2534 12.2643 20.3838 16.7252 20.3838 16.7252L22.0645 21.5063C22.0645 21.5063 20.0456 23.2414 19.5964 24.8155C18.8544 27.416 19.7381 29.7163 21.8126 31.6237C23.9402 33.5797 26.2146 33.7655 28.8907 33.1139Z" fill="#92DC3F" stroke="#2E982A" stroke-width="4"/>
<path d="M30.2277 50.1492C27.1698 45.8077 26.3446 42.7327 26.3446 42.7327C26.3446 42.7327 25.1693 39.5103 25.6898 36.3748C26.2103 33.2393 26.6022 32.6397 27.9542 30.7072C29.0181 29.1867 29.7047 28.6105 32.1071 26.5946L32.1079 26.5939C34.511 24.5775 36.1763 23.2296 38.219 22.7218C41.0408 22.0205 42.5455 21.6032 45.7739 22.6619C49.0022 23.7206 52.4033 27.7738 54.2585 29.9847L54.2586 29.9849C56.1138 32.1958 59.4468 37.5623 62.7116 44.2419C65.9764 50.9214 67.1109 54.3651 68.4523 60.1468C69.7936 65.9285 70.9673 73.1832 68.3546 74.6713C65.7418 76.1594 59.5288 73.9138 55.682 72.1182C51.8353 70.3226 47.7134 67.5019 41.7363 62.4702C35.7592 57.4385 33.2857 54.4907 30.2277 50.1492Z" fill="#E39856" stroke="#A75664" stroke-width="4"/>
</svg>
